<svg width="32" height="35" viewBox="0 0 32 35" fill="none" xmlns="http://www.w3.org/2000/svg">
<path d="M16.3615 28.8485C22.9005 28.8485 28.2015 23.2263 28.2015 16.2909C28.2015 9.35559 22.9005 3.73337 16.3615 3.73337C9.82244 3.73337 4.52148 9.35559 4.52148 16.2909C4.52148 23.2263 9.82244 28.8485 16.3615 28.8485Z" stroke="#6E62E5" stroke-width="1.92" stroke-miterlimit="10" stroke-linecap="round"/>
<path d="M24.6676 24.2836C24.517 24.4606 24.3617 24.6327 24.2016 24.7997C23.0567 23.318 21.3311 22.4388 19.4878 22.4388H13.2326C11.3893 22.4388 9.66364 23.3181 8.51868 24.7999C8.35861 24.6329 8.2032 24.4607 8.05269 24.2837C9.32967 22.6355 11.2305 21.6824 13.2326 21.6824H19.4878C21.4898 21.6824 23.3906 22.6354 24.6676 24.2836Z" fill="#121331" stroke="#6E62E5" stroke-width="1.28"/>
<path d="M12.8418 12.2182C12.8418 10.1563 14.4177 8.48486 16.3618 8.48486C18.3059 8.48486 19.8818 10.1563 19.8818 12.2182V14.2546C19.8818 16.3164 18.3059 17.9879 16.3618 17.9879C14.4177 17.9879 12.8418 16.3164 12.8418 14.2546V12.2182Z" stroke="#6E62E5" stroke-width="1.92" stroke-linejoin="round"/>
<mask id="mask0_193_1922" style="mask-type:luminance" maskUnits="userSpaceOnUse" x="1" y="0" width="31" height="31">
<path d="M31.72 0H1V30.72H31.72V0Z" fill="white"/>
</mask>
<g mask="url(#mask0_193_1922)">
</g>
<path d="M22.5658 26.0545L18.1192 26.0527C18.087 26.0527 18.0556 26.0426 18.0294 26.0238C18.0032 26.005 17.9835 25.9786 17.973 25.9481L16.5634 21.6368C16.556 21.6142 16.5417 21.5945 16.5223 21.5807C16.503 21.5669 16.4797 21.5597 16.4559 21.5601C16.4322 21.5597 16.4089 21.567 16.3896 21.5809C16.3703 21.5948 16.356 21.6145 16.3488 21.6372L14.9598 25.9209C14.9494 25.9514 14.9297 25.9779 14.9035 25.9967C14.8773 26.0155 14.8458 26.0256 14.8136 26.0255L10.4294 26.0269C10.4115 26.027 10.3939 26.0313 10.378 26.0395C10.3621 26.0476 10.3484 26.0594 10.3379 26.0739C10.3275 26.0884 10.3206 26.1051 10.3178 26.1228C10.315 26.1404 10.3164 26.1585 10.322 26.1755C10.3294 26.1982 10.3438 26.218 10.3631 26.2321L13.9276 28.8023C13.9541 28.8213 13.9738 28.8482 13.984 28.8792C13.9941 28.9102 13.9942 28.9436 13.9841 28.9746L12.6334 33.221C12.6278 33.238 12.6264 33.2561 12.6291 33.2738C12.6319 33.2915 12.6388 33.3083 12.6493 33.3228C12.6598 33.3373 12.6736 33.3491 12.6896 33.3573C12.7055 33.3654 12.7232 33.3697 12.7411 33.3697C12.7651 33.3697 12.7884 33.3621 12.8078 33.348L16.3596 30.6026C16.3858 30.5837 16.4172 30.5735 16.4495 30.5735C16.4817 30.5735 16.5132 30.5837 16.5393 30.6026L20.1177 33.4198C20.1373 33.4337 20.1608 33.4409 20.1847 33.4405C20.2087 33.4401 20.232 33.4321 20.2511 33.4176C20.2702 33.4031 20.2842 33.3829 20.2911 33.3599C20.2979 33.3369 20.2973 33.3123 20.2893 33.2897L18.9515 29.0193C18.9411 28.988 18.941 28.9542 18.9512 28.9228C18.9613 28.8914 18.9813 28.8641 19.008 28.8448L22.6314 26.261C22.651 26.2471 22.6658 26.2274 22.6734 26.2046C22.6811 26.1818 22.6813 26.1571 22.674 26.1342C22.6666 26.1113 22.6522 26.0913 22.6328 26.0772C22.6133 26.063 22.5899 26.0554 22.5658 26.0555V26.0545Z" fill="#FFC738"/>
<g style="mix-blend-mode:multiply" opacity="0.5">
<path d="M10.3683 26.232L13.9323 28.8023C13.959 28.8212 13.9788 28.8481 13.989 28.8791C13.9992 28.9101 13.9991 28.9436 13.9888 28.9746L12.6381 33.221C12.6303 33.2436 12.6301 33.2681 12.6375 33.2909C12.645 33.3136 12.6596 33.3333 12.6793 33.3469L16.5008 27.972L10.3264 26.1047C10.3185 26.1276 10.3183 26.1524 10.3258 26.1754C10.3334 26.1984 10.3483 26.2183 10.3683 26.232ZM16.3997 21.5775C16.3777 21.5914 16.3613 21.6125 16.3533 21.6372L14.9659 25.9209C14.9546 25.9548 14.9316 25.9837 14.9011 26.0025L16.5008 27.972L16.4607 21.5601C16.4391 21.5602 16.418 21.5662 16.3997 21.5775ZM16.5455 30.6016L20.1238 33.4191C20.1433 33.433 20.1666 33.4403 20.1905 33.4399C20.2144 33.4395 20.2375 33.4313 20.2564 33.4167L16.5008 27.972L16.4576 30.573C16.4891 30.573 16.5199 30.583 16.5455 30.6016ZM22.6784 26.1333L16.5008 27.972L18.9556 28.9181C18.9662 28.8883 18.9855 28.8624 19.0111 28.8438L22.6348 26.2599C22.6548 26.2465 22.67 26.2268 22.6778 26.204C22.6857 26.1811 22.6859 26.1563 22.6784 26.1333Z" fill="#FFC738"/>
</g>
</svg>
