<svg width="18" height="18" viewBox="0 0 18 18" fill="none" xmlns="http://www.w3.org/2000/svg">
<path d="M17.2499 11.93V15.23C17.2499 16.46 16.1599 17.4 14.9399 17.23C7.5999 16.21 1.78991 10.4 0.769912 3.06C0.599912 1.84 1.53991 0.75 2.76991 0.75H6.06991C6.55991 0.75 6.97991 1.1 7.0599 1.58L7.4499 3.77C7.5899 4.54 7.2699 5.32 6.62991 5.77L5.73991 6.4C7.1699 8.81 9.1999 10.82 11.6199 12.24L12.2299 11.37C12.6799 10.73 13.4599 10.41 14.2299 10.55L16.4199 10.94C16.8999 11.03 17.2499 11.44 17.2499 11.93Z" stroke="#88CD57" stroke-width="1.5" stroke-linecap="round" stroke-linejoin="round"/>
</svg>
