<svg width="25" height="24" viewBox="0 0 25 24" fill="none" xmlns="http://www.w3.org/2000/svg">
<mask id="mask0_115_1495" style="mask-type:luminance" maskUnits="userSpaceOnUse" x="1" y="0" width="24" height="24">
<path d="M25 0H1V24H25V0Z" fill="white"/>
</mask>
<g mask="url(#mask0_115_1495)">
<path d="M15 8L9 11" stroke="#2A2A2A" stroke-width="1.5" stroke-linecap="round" stroke-linejoin="round"/>
<path d="M15 17L9 14" stroke="#2A2A2A" stroke-width="1.5" stroke-linecap="round" stroke-linejoin="round"/>
<path d="M7 16C8.65685 16 10 14.6569 10 13C10 11.3431 8.65685 10 7 10C5.34315 10 4 11.3431 4 13C4 14.6569 5.34315 16 7 16Z" stroke="#2A2A2A" stroke-width="1.5" stroke-linecap="round" stroke-linejoin="round"/>
<path d="M18 10C19.6569 10 21 8.65685 21 7C21 5.34315 19.6569 4 18 4C16.3431 4 15 5.34315 15 7C15 8.65685 16.3431 10 18 10Z" stroke="#2A2A2A" stroke-width="1.5" stroke-linecap="round" stroke-linejoin="round"/>
<path d="M18 21C19.6569 21 21 19.6569 21 18C21 16.3431 19.6569 15 18 15C16.3431 15 15 16.3431 15 18C15 19.6569 16.3431 21 18 21Z" stroke="#2A2A2A" stroke-width="1.5" stroke-linecap="round" stroke-linejoin="round"/>
</g>
</svg>
