<svg width="25" height="24" viewBox="0 0 25 24" fill="none" xmlns="http://www.w3.org/2000/svg">
<mask id="mask0_177_1788" style="mask-type:luminance" maskUnits="userSpaceOnUse" x="0" y="0" width="25" height="24">
<path d="M24.5 0H0.5V24H24.5V0Z" fill="white"/>
</mask>
<g mask="url(#mask0_177_1788)">
<mask id="mask1_177_1788" style="mask-type:alpha" maskUnits="userSpaceOnUse" x="4" y="2" width="17" height="21">
<path fill-rule="evenodd" clip-rule="evenodd" d="M21 2H4V23H21V2ZM9.25 2.75H15.75V6.25H9.25V2.75Z" fill="#D9D9D9"/>
</mask>
<g mask="url(#mask1_177_1788)">
<path d="M18.75 3.74072H6.25C5.69772 3.74072 5.25 4.18867 5.25 4.74125V20.2494C5.25 20.802 5.69772 21.25 6.25 21.25H18.75C19.3023 21.25 19.75 20.802 19.75 20.2494V4.74125C19.75 4.18867 19.3023 3.74072 18.75 3.74072Z" stroke="#F4F4F4" stroke-width="1.5" stroke-linecap="round" stroke-linejoin="round"/>
</g>
<path d="M15.75 2.75H9.25V6.25H15.75V2.75Z" stroke="#F4F4F4" stroke-width="1.5" stroke-linecap="round" stroke-linejoin="round"/>
<path d="M9.25 18.2484V14.7466" stroke="#F4F4F4" stroke-width="1.5" stroke-linecap="round" stroke-linejoin="round"/>
<path d="M15.75 18.2485V12.7456" stroke="#F4F4F4" stroke-width="1.5" stroke-linecap="round" stroke-linejoin="round"/>
<path d="M12.5 18.2545V9.75" stroke="#F4F4F4" stroke-width="1.5" stroke-linecap="round" stroke-linejoin="round"/>
</g>
</svg>
