<svg width="25" height="24" viewBox="0 0 25 24" fill="none" xmlns="http://www.w3.org/2000/svg">
<mask id="mask0_177_1765" style="mask-type:luminance" maskUnits="userSpaceOnUse" x="0" y="0" width="25" height="24">
<path d="M24.5 0H0.5V24H24.5V0Z" fill="white"/>
</mask>
<g mask="url(#mask0_177_1765)">
<path d="M10.25 18.2501V14.7501C10.25 14.1978 10.6977 13.7501 11.25 13.7501H13.75C14.3023 13.7501 14.75 14.1978 14.75 14.7501V18.2501C14.75 19.3547 15.6454 20.2501 16.75 20.2501H19.75C20.3023 20.2501 20.75 19.8024 20.75 19.2501V9.77203C20.75 9.445 20.5901 9.13863 20.3218 8.95163L13.0718 3.8986C12.7282 3.65913 12.2718 3.65913 11.9282 3.8986L4.67821 8.95163C4.40991 9.13863 4.25 9.445 4.25 9.77203V19.2501C4.25 19.8024 4.69772 20.2501 5.25 20.2501H8.25C9.35457 20.2501 10.25 19.3547 10.25 18.2501Z" stroke="#F4F4F4" stroke-width="1.5" stroke-linecap="round" stroke-linejoin="round"/>
</g>
</svg>
