<svg width="24" height="24" viewBox="0 0 24 24" fill="none" xmlns="http://www.w3.org/2000/svg">
<g clip-path="url(#clip0_329_3110)">
<mask id="mask0_329_3110" style="mask-type:luminance" maskUnits="userSpaceOnUse" x="0" y="0" width="24" height="24">
<path d="M0.960469 23.0405V0.960469H23.0405V23.0405H0.960469Z" fill="white" stroke="white" stroke-width="0.96"/>
</mask>
<g mask="url(#mask0_329_3110)">
<path d="M12.0001 20.8801C16.9044 20.8801 20.8801 16.9044 20.8801 12.0001C20.8801 7.09583 16.9044 3.12012 12.0001 3.12012C7.09583 3.12012 3.12012 7.09583 3.12012 12.0001C3.12012 16.9044 7.09583 20.8801 12.0001 20.8801Z" stroke="white" stroke-width="1.5" stroke-miterlimit="10" stroke-linecap="round"/>
<mask id="path-3-inside-1_329_3110" fill="white">
<path fill-rule="evenodd" clip-rule="evenodd" d="M6.18724 18.7132L6.3474 18.4915C7.11446 17.4294 8.34485 16.8004 9.65488 16.8004H14.3463C15.6565 16.8004 16.8869 17.4295 17.654 18.4917L17.8139 18.7132C18.1825 18.3937 18.5244 18.0444 18.8361 17.669L18.8213 17.6486C17.7836 16.2116 16.1188 15.3604 14.3463 15.3604H9.65488C7.88247 15.3604 6.21783 16.2115 5.18005 17.6483L5.16504 17.6691C5.47669 18.0445 5.81867 18.3938 6.18724 18.7132Z"/>
</mask>
<path fill-rule="evenodd" clip-rule="evenodd" d="M6.18724 18.7132L6.3474 18.4915C7.11446 17.4294 8.34485 16.8004 9.65488 16.8004H14.3463C15.6565 16.8004 16.8869 17.4295 17.654 18.4917L17.8139 18.7132C18.1825 18.3937 18.5244 18.0444 18.8361 17.669L18.8213 17.6486C17.7836 16.2116 16.1188 15.3604 14.3463 15.3604H9.65488C7.88247 15.3604 6.21783 16.2115 5.18005 17.6483L5.16504 17.6691C5.47669 18.0445 5.81867 18.3938 6.18724 18.7132Z" fill="#6E62E5"/>
<path d="M6.18724 18.7132L5.20473 19.8467L6.44342 20.9204L7.40324 19.5915L6.18724 18.7132ZM6.3474 18.4915L7.56341 19.3697L7.56341 19.3697L6.3474 18.4915ZM17.654 18.4917L18.87 17.6135L18.87 17.6135L17.654 18.4917ZM17.8139 18.7132L16.5979 19.5913L17.5577 20.9204L18.7965 19.8466L17.8139 18.7132ZM18.8361 17.669L19.9902 18.6271L20.7347 17.7304L20.0497 16.7874L18.8361 17.669ZM18.8213 17.6486L17.6053 18.5268L17.6077 18.5302L18.8213 17.6486ZM5.18005 17.6483L6.39497 18.5281L6.39605 18.5266L5.18005 17.6483ZM5.16504 17.6691L3.95012 16.7893L3.26766 17.7318L4.01086 18.6271L5.16504 17.6691ZM7.40324 19.5915L7.56341 19.3697L5.1314 17.6132L4.97124 17.835L7.40324 19.5915ZM7.56341 19.3697C8.04846 18.6981 8.8265 18.3004 9.65488 18.3004V15.3004C7.8632 15.3004 6.18046 16.1607 5.1314 17.6132L7.56341 19.3697ZM9.65488 18.3004H14.3463V15.3004H9.65488V18.3004ZM14.3463 18.3004C15.1748 18.3004 15.9529 18.6982 16.4379 19.3699L18.87 17.6135C17.821 16.1609 16.1382 15.3004 14.3463 15.3004V18.3004ZM16.4379 19.3699L16.5979 19.5913L19.03 17.835L18.87 17.6135L16.4379 19.3699ZM18.7965 19.8466C19.2268 19.4735 19.6262 19.0656 19.9902 18.6271L17.682 16.7108C17.4227 17.0232 17.1381 17.3138 16.8314 17.5797L18.7965 19.8466ZM20.0497 16.7874L20.035 16.767L17.6077 18.5302L17.6225 18.5505L20.0497 16.7874ZM20.0374 16.7704C18.7176 14.9429 16.6005 13.8604 14.3463 13.8604V16.8604C15.6372 16.8604 16.8495 17.4803 17.6053 18.5268L20.0374 16.7704ZM14.3463 13.8604H9.65488V16.8604H14.3463V13.8604ZM9.65488 13.8604C7.40082 13.8604 5.28384 14.9428 3.96406 16.77L6.39605 18.5266C7.15182 17.4802 8.36413 16.8604 9.65488 16.8604V13.8604ZM3.96513 16.7686L3.95012 16.7893L6.37996 18.5488L6.39497 18.5281L3.96513 16.7686ZM4.01086 18.6271C4.37495 19.0657 4.77437 19.4736 5.20473 19.8467L7.16975 17.5798C6.86298 17.3139 6.57843 17.0233 6.31922 16.711L4.01086 18.6271Z" fill="white" mask="url(#path-3-inside-1_329_3110)"/>
<path d="M9.36035 9.12047C9.36035 7.66244 10.5423 6.48047 12.0004 6.48047C13.4584 6.48047 14.6404 7.66244 14.6404 9.12047V10.5605C14.6404 12.0185 13.4584 13.2005 12.0004 13.2005C10.5423 13.2005 9.36035 12.0185 9.36035 10.5605V9.12047Z" stroke="white" stroke-width="1.5" stroke-linejoin="round"/>
</g>
</g>
<defs>
<clipPath id="clip0_329_3110">
<rect width="24" height="23.04" fill="white" transform="translate(0 0.480469)"/>
</clipPath>
</defs>
</svg>
