<svg width="32" height="32" viewBox="0 0 32 32" fill="none" xmlns="http://www.w3.org/2000/svg">
<path d="M12.4131 19.5999L14.4131 21.5999L19.7464 16.2666" stroke="#6E62E5" stroke-width="2" stroke-linecap="round" stroke-linejoin="round"/>
<path d="M13.3337 8.00033H18.667C21.3337 8.00033 21.3337 6.66699 21.3337 5.33366C21.3337 2.66699 20.0003 2.66699 18.667 2.66699H13.3337C12.0003 2.66699 10.667 2.66699 10.667 5.33366C10.667 8.00033 12.0003 8.00033 13.3337 8.00033Z" stroke="#6E62E5" stroke-width="2" stroke-miterlimit="10" stroke-linecap="round" stroke-linejoin="round"/>
<path d="M21.3333 5.35938C25.7733 5.59938 28 7.23937 28 13.3327V21.3327C28 26.666 26.6667 29.3327 20 29.3327H12C5.33333 29.3327 4 26.666 4 21.3327V13.3327C4 7.25271 6.22667 5.59938 10.6667 5.35938" stroke="#6E62E5" stroke-width="2" stroke-miterlimit="10" stroke-linecap="round" stroke-linejoin="round"/>
</svg>
