<svg width="32" height="32" viewBox="0 0 32 32" fill="none" xmlns="http://www.w3.org/2000/svg">
<path d="M5.67999 14.6933V21.3199C5.67999 23.7466 5.67999 23.7466 7.97333 25.2933L14.28 28.9333C15.2267 29.4799 16.7733 29.4799 17.72 28.9333L24.0267 25.2933C26.32 23.7466 26.32 23.7466 26.32 21.3199V14.6933C26.32 12.2666 26.32 12.2666 24.0267 10.7199L17.72 7.07992C16.7733 6.53326 15.2267 6.53326 14.28 7.07992L7.97333 10.7199C5.67999 12.2666 5.67999 12.2666 5.67999 14.6933Z" stroke="#6E62E5" stroke-width="1" stroke-linecap="round" stroke-linejoin="round"/>
<path d="M23.3333 10.1734V6.66675C23.3333 4.00008 22 2.66675 19.3333 2.66675H12.6667C10 2.66675 8.66667 4.00008 8.66667 6.66675V10.0801" stroke="#6E62E5" stroke-width="1" stroke-linecap="round" stroke-linejoin="round"/>
<path d="M16.84 14.6533L17.6 15.8399C17.72 16.0266 17.9867 16.2133 18.1867 16.2666L19.5467 16.6133C20.3867 16.8266 20.6133 17.5466 20.0667 18.2133L19.1733 19.2933C19.04 19.4666 18.9333 19.7733 18.9467 19.9866L19.0267 21.3866C19.08 22.2533 18.4667 22.6933 17.6667 22.3733L16.36 21.8533C16.16 21.7733 15.8267 21.7733 15.6267 21.8533L14.32 22.3733C13.52 22.6933 12.9067 22.2399 12.96 21.3866L13.04 19.9866C13.0533 19.7733 12.9467 19.4533 12.8133 19.2933L11.92 18.2133C11.3733 17.5466 11.6 16.8266 12.44 16.6133L13.8 16.2666C14.0133 16.2133 14.28 16.0133 14.3867 15.8399L15.1467 14.6533C15.6267 13.9333 16.3733 13.9333 16.84 14.6533Z" stroke="#6E62E5" stroke-width="1" stroke-linecap="round" stroke-linejoin="round"/>
</svg>
