<svg width="32" height="32" viewBox="0 0 32 32" fill="none" xmlns="http://www.w3.org/2000/svg">
<path d="M25.3337 12.0003C25.3337 13.9337 24.7603 15.707 23.7737 17.187C22.3337 19.3203 20.0537 20.827 17.4003 21.2137C16.947 21.2937 16.4803 21.3337 16.0003 21.3337C15.5203 21.3337 15.0537 21.2937 14.6003 21.2137C11.947 20.827 9.66699 19.3203 8.22699 17.187C7.24033 15.707 6.66699 13.9337 6.66699 12.0003C6.66699 6.84033 10.8403 2.66699 16.0003 2.66699C21.1603 2.66699 25.3337 6.84033 25.3337 12.0003Z" stroke="#6E62E5" stroke-width="1.92" stroke-linecap="round" stroke-linejoin="round"/>
<path d="M28.3338 24.6269L26.1338 25.1469C25.6404 25.2669 25.2538 25.6402 25.1471 26.1335L24.6804 28.0935C24.4271 29.1602 23.0671 29.4802 22.3604 28.6402L16.0004 21.3335L9.64043 28.6535C8.93376 29.4935 7.57376 29.1735 7.32043 28.1069L6.85376 26.1469C6.73376 25.6535 6.3471 25.2669 5.8671 25.1602L3.6671 24.6402C2.65376 24.4002 2.29376 23.1335 3.0271 22.4002L8.2271 17.2002C9.6671 19.3335 11.9471 20.8402 14.6004 21.2269C15.0538 21.3069 15.5204 21.3469 16.0004 21.3469C16.4804 21.3469 16.9471 21.3069 17.4004 21.2269C20.0538 20.8402 22.3338 19.3335 23.7738 17.2002L28.9738 22.4002C29.7071 23.1202 29.3471 24.3869 28.3338 24.6269Z" stroke="#6E62E5" stroke-width="1.92" stroke-linecap="round" stroke-linejoin="round"/>
<path d="M16.7736 7.97301L17.5603 9.54633C17.667 9.75966 17.947 9.97301 18.2003 10.013L19.627 10.253C20.5336 10.3997 20.747 11.0663 20.0936 11.7197L18.987 12.8263C18.8003 13.013 18.6936 13.373 18.7603 13.6397L19.0803 15.013C19.3336 16.093 18.7603 16.5196 17.8003 15.9463L16.467 15.1597C16.227 15.013 15.827 15.013 15.587 15.1597L14.2536 15.9463C13.2936 16.5063 12.7203 16.093 12.9736 15.013L13.2936 13.6397C13.347 13.3863 13.2536 13.013 13.067 12.8263L11.9603 11.7197C11.307 11.0663 11.5203 10.413 12.427 10.253L13.8536 10.013C14.0936 9.97301 14.3736 9.75966 14.4803 9.54633L15.267 7.97301C15.6536 7.11967 16.347 7.11967 16.7736 7.97301Z" stroke="#6E62E5" stroke-width="1.92" stroke-linecap="round" stroke-linejoin="round"/>
</svg>
