<svg width="32" height="32" viewBox="0 0 32 32" fill="none" xmlns="http://www.w3.org/2000/svg">
<path d="M28.6527 15.9995C29.0793 14.6395 29.3327 13.1728 29.3327 11.5862C29.3327 7.46618 26.0127 4.13281 21.9194 4.13281C19.4927 4.13281 17.346 5.30621 15.9993 7.11955C14.6527 5.30621 12.4927 4.13281 10.0793 4.13281C5.98601 4.13281 2.66602 7.46618 2.66602 11.5862C2.66602 20.9195 11.306 26.4262 15.1727 27.7595C15.3993 27.8395 15.6927 27.8795 15.9993 27.8795" stroke="#6E62E5" stroke-width="2" stroke-linecap="round" stroke-linejoin="round"/>
<path d="M23.6534 28.0002C26.0098 28.0002 27.9201 26.0899 27.9201 23.7335C27.9201 21.3771 26.0098 19.4668 23.6534 19.4668C21.297 19.4668 19.3867 21.3771 19.3867 23.7335C19.3867 26.0899 21.297 28.0002 23.6534 28.0002Z" stroke="#6E62E5" stroke-width="2" stroke-linecap="round" stroke-linejoin="round"/>
<path d="M28.7201 28.8001L27.3867 27.4668" stroke="#6E62E5" stroke-width="2" stroke-linecap="round" stroke-linejoin="round"/>
</svg>
