<svg width="32" height="31" viewBox="0 0 32 31" fill="none" xmlns="http://www.w3.org/2000/svg">
<g clip-path="url(#clip0_380_8662)">
<mask id="mask0_380_8662" style="mask-type:luminance" maskUnits="userSpaceOnUse" x="0" y="0" width="32" height="31">
<path d="M31.3606 0H0.640625V30.72H31.3606V0Z" fill="white"/>
</mask>
<g mask="url(#mask0_380_8662)">
<path d="M16.0002 27.1995C22.5392 27.1995 27.8402 21.8985 27.8402 15.3595C27.8402 8.82048 22.5392 3.51953 16.0002 3.51953C9.46111 3.51953 4.16016 8.82048 4.16016 15.3595C4.16016 21.8985 9.46111 27.1995 16.0002 27.1995Z" stroke="#6E62E5" stroke-width="1.92" stroke-miterlimit="10" stroke-linecap="round"/>
<path fill-rule="evenodd" clip-rule="evenodd" d="M8.24965 24.3104L8.4632 24.0147C9.48595 22.5986 11.1265 21.7598 12.8732 21.7598H19.1284C20.8754 21.7598 22.5159 22.5988 23.5386 24.0149L23.7519 24.3102C24.2433 23.8843 24.6992 23.4186 25.1148 22.918L25.0951 22.8909C23.7114 20.9748 21.4918 19.8398 19.1284 19.8398H12.8732C10.51 19.8398 8.29044 20.9747 6.90674 22.8905L6.88672 22.9181C7.30226 23.4187 7.75823 23.8844 8.24965 24.3104Z" fill="#6E62E5"/>
<path d="M12.4805 11.519C12.4805 9.57499 14.0564 7.99902 16.0005 7.99902C17.9445 7.99902 19.5205 9.57499 19.5205 11.519V13.439C19.5205 15.3831 17.9445 16.959 16.0005 16.959C14.0564 16.959 12.4805 15.3831 12.4805 13.439V11.519Z" stroke="#6E62E5" stroke-width="1.92" stroke-linejoin="round"/>
</g>
</g>
<defs>
<clipPath id="clip0_380_8662">
<rect width="32" height="30.72" fill="white"/>
</clipPath>
</defs>
</svg>
