<svg width="44" height="44" viewBox="0 0 44 44" fill="none" xmlns="http://www.w3.org/2000/svg">
<path d="M14.6664 40.3333H29.3331C36.7031 40.3333 38.0231 37.3817 38.4081 33.7883L39.7831 19.1217C40.2781 14.6483 38.9948 11 31.1664 11H12.8331C5.00476 11 3.72143 14.6483 4.21643 19.1217L5.59143 33.7883C5.97643 37.3817 7.29643 40.3333 14.6664 40.3333Z" stroke="#6E62E5" stroke-width="2.75" stroke-miterlimit="10" stroke-linecap="round" stroke-linejoin="round"/>
<path d="M14.6667 11V9.53334C14.6667 6.28834 14.6667 3.66667 20.5334 3.66667H23.4667C29.3334 3.66667 29.3334 6.28834 29.3334 9.53334V11" stroke="#6E62E5" stroke-width="2.75" stroke-miterlimit="10" stroke-linecap="round" stroke-linejoin="round"/>
<path d="M25.6666 23.8333V25.6667C25.6666 25.685 25.6666 25.685 25.6666 25.7033C25.6666 27.7017 25.6483 29.3333 21.9999 29.3333C18.3699 29.3333 18.3333 27.72 18.3333 25.7217V23.8333C18.3333 22 18.3333 22 20.1666 22H23.8333C25.6666 22 25.6666 22 25.6666 23.8333Z" stroke="#6E62E5" stroke-width="2.75" stroke-miterlimit="10" stroke-linecap="round" stroke-linejoin="round"/>
<path d="M39.6917 20.1667C35.4567 23.2467 30.6167 25.08 25.6667 25.7033" stroke="#6E62E5" stroke-width="2.75" stroke-miterlimit="10" stroke-linecap="round" stroke-linejoin="round"/>
<path d="M4.80347 20.6617C8.92847 23.485 13.5851 25.19 18.3335 25.7217" stroke="#6E62E5" stroke-width="2.75" stroke-miterlimit="10" stroke-linecap="round" stroke-linejoin="round"/>
</svg>
